<?xml version="1.0" encoding="UTF-8" standalone="no"?>
<!DOCTYPE svg PUBLIC "-//W3C//DTD SVG 1.1//EN" "http://www.w3.org/Graphics/SVG/1.1/DTD/svg11.dtd">
<svg width="100%" height="100%" viewBox="0 0 2160 3840" version="1.1" xmlns="http://www.w3.org/2000/svg" xmlns:xlink="http://www.w3.org/1999/xlink" xml:space="preserve" xmlns:serif="http://www.serif.com/" style="fill-rule:evenodd;clip-rule:evenodd;stroke-linejoin:round;stroke-miterlimit:2;">
    <rect id="ColorBG" x="-1.623" y="-3.247" width="2160" height="3840" style="fill:url(#_Linear1);"/>
    <g id="Hexagons">
        <path id="Hexagon" d="M19.485,529.832C22.472,527.354 98.224,514.451 101.864,515.8C105.503,517.148 154.553,576.3 155.205,580.126C155.857,583.952 129.156,656.006 126.168,658.484C123.18,660.961 47.429,673.864 43.789,672.516C40.15,671.167 -8.901,612.016 -9.552,608.19C-10.204,604.364 16.497,532.309 19.485,529.832Z" style="fill:#8eccff;fill-opacity:0.18;"/>
        <path id="Hexagon1" serif:id="Hexagon" d="M136.269,432.99C139.257,430.512 215.009,417.609 218.648,418.958C222.287,420.306 271.338,479.457 271.99,483.283C272.641,487.11 245.94,559.164 242.952,561.642C239.965,564.119 164.213,577.022 160.574,575.674C156.934,574.325 107.884,515.174 107.232,511.348C106.58,507.522 133.282,435.467 136.269,432.99Z" style="fill:#8eccff;fill-opacity:0.18;"/>
        <path id="Hexagon2" serif:id="Hexagon" d="M369.281,239.768C372.268,237.29 448.02,224.387 451.659,225.736C455.299,227.084 504.349,286.236 505.001,290.062C505.653,293.888 478.951,365.942 475.964,368.42C472.976,370.897 397.224,383.8 393.585,382.452C389.946,381.103 340.895,321.952 340.244,318.126C339.592,314.3 366.293,242.245 369.281,239.768Z" style="fill:#8eccff;fill-opacity:0.18;"/>
        <path id="Hexagon3" serif:id="Hexagon" d="M-31.741,230.382C-28.753,227.905 46.999,215.001 50.638,216.35C54.277,217.699 103.328,276.85 103.98,280.676C104.631,284.502 77.93,356.557 74.943,359.034C71.955,361.511 -3.797,374.415 -7.436,373.066C-11.075,371.718 -60.126,312.566 -60.778,308.74C-61.429,304.914 -34.728,232.86 -31.741,230.382Z" style="fill:#8eccff;fill-opacity:0.18;"/>
        <path id="Hexagon4" serif:id="Hexagon" d="M84.765,133.771C87.753,131.294 163.505,118.39 167.144,119.739C170.783,121.088 219.834,180.239 220.485,184.065C221.137,187.891 194.436,259.946 191.448,262.423C188.461,264.901 112.709,277.804 109.07,276.455C105.43,275.107 56.38,215.955 55.728,212.129C55.076,208.303 81.778,136.249 84.765,133.771Z" style="fill:#8eccff;fill-opacity:0.18;"/>
        <path id="Hexagon5" serif:id="Hexagon" d="M-6.142,380.118C-3.154,377.641 72.598,364.738 76.237,366.086C79.876,367.435 128.927,426.586 129.579,430.412C130.23,434.238 103.529,506.293 100.542,508.77C97.554,511.248 21.802,524.151 18.163,522.802C14.523,521.454 -34.527,462.303 -35.179,458.476C-35.83,454.65 -9.129,382.596 -6.142,380.118Z" style="fill:#8eccff;fill-opacity:0.18;"/>
        <path id="Hexagon6" serif:id="Hexagon" d="M227.149,186.665C230.136,184.188 305.888,171.285 309.527,172.633C313.167,173.982 362.217,233.133 362.869,236.959C363.521,240.785 336.819,312.84 333.832,315.317C330.844,317.795 255.092,330.698 251.453,329.349C247.814,328.001 198.763,268.849 198.111,265.023C197.46,261.197 224.161,189.143 227.149,186.665Z" style="fill:#8eccff;fill-opacity:0.18;"/>
    </g>
    <g id="Hexagons1" serif:id="Hexagons">
        <path id="Hexagon7" serif:id="Hexagon" d="M619.138,528.369C621.476,525.39 691.06,497.459 694.809,497.995C698.558,498.53 757.539,544.826 758.95,548.34C760.361,551.855 749.758,626.082 747.42,629.061C745.082,632.04 675.498,659.971 671.749,659.436C668,658.9 609.019,612.604 607.608,609.09C606.197,605.575 616.8,531.348 619.138,528.369Z" style="fill:#8eccff;fill-opacity:0.18;"/>
        <path id="Hexagon8" serif:id="Hexagon" d="M892.693,179.858C895.031,176.879 964.615,148.947 968.364,149.483C972.113,150.018 1031.09,196.314 1032.51,199.829C1033.91,203.343 1023.31,277.57 1020.97,280.549C1018.64,283.528 949.052,311.459 945.303,310.924C941.554,310.388 882.573,264.093 881.162,260.578C879.752,257.064 890.354,182.837 892.693,179.858Z" style="fill:#8eccff;fill-opacity:0.18;"/>
        <path id="Hexagon9" serif:id="Hexagon" d="M325.71,486.244C328.049,483.265 397.632,455.334 401.381,455.869C405.13,456.405 464.112,502.701 465.522,506.215C466.933,509.73 456.331,583.957 453.992,586.936C451.654,589.915 382.07,617.846 378.321,617.31C374.572,616.775 315.591,570.479 314.18,566.965C312.769,563.45 323.372,489.223 325.71,486.244Z" style="fill:#8eccff;fill-opacity:0.18;"/>
        <path id="Hexagon10" serif:id="Hexagon" d="M417.113,369.796C419.452,366.817 489.035,338.885 492.784,339.421C496.533,339.956 555.515,386.252 556.925,389.767C558.336,393.281 547.733,467.508 545.395,470.487C543.057,473.466 473.473,501.397 469.724,500.862C465.975,500.326 406.994,454.031 405.583,450.516C404.172,447.002 414.775,372.775 417.113,369.796Z" style="fill:#8eccff;fill-opacity:0.18;"/>
        <path id="Hexagon11" serif:id="Hexagon" d="M690.668,21.284C693.006,18.305 762.59,-9.626 766.339,-9.091C770.088,-8.555 829.069,37.74 830.48,41.255C831.891,44.769 821.288,118.996 818.95,121.975C816.611,124.954 747.028,152.886 743.279,152.35C739.53,151.815 680.548,105.519 679.138,102.005C677.727,98.49 688.33,24.263 690.668,21.284Z" style="fill:#8eccff;fill-opacity:0.18;"/>
        <path id="Hexagon12" serif:id="Hexagon" d="M472.413,507.321C474.752,504.342 544.335,476.41 548.084,476.946C551.834,477.481 610.815,523.777 612.225,527.291C613.636,530.806 603.034,605.033 600.695,608.012C598.357,610.991 528.773,638.922 525.024,638.387C521.275,637.851 462.294,591.556 460.883,588.041C459.473,584.527 470.075,510.3 472.413,507.321Z" style="fill:#8eccff;fill-opacity:0.18;"/>
        <path id="Hexagon13" serif:id="Hexagon" d="M837.371,42.361C839.709,39.382 909.293,11.45 913.042,11.986C916.791,12.521 975.772,58.817 977.183,62.331C978.594,65.846 967.991,140.073 965.653,143.052C963.315,146.031 893.731,173.962 889.982,173.427C886.233,172.891 827.252,126.596 825.841,123.081C824.43,119.566 835.033,45.34 837.371,42.361Z" style="fill:#8eccff;fill-opacity:0.18;"/>
    </g>
    <g id="Hexagons2" serif:id="Hexagons">
        <path id="Hexagon14" serif:id="Hexagon" d="M1652.71,3721.21C1656.38,3723.55 1696.07,3799.98 1695.88,3804.32C1695.68,3808.67 1649.34,3881.26 1645.48,3883.26C1641.62,3885.27 1555.58,3881.43 1551.92,3879.09C1548.25,3876.75 1508.56,3800.32 1508.75,3795.97C1508.95,3791.63 1555.29,3719.04 1559.15,3717.03C1563.01,3715.03 1649.04,3718.87 1652.71,3721.21Z" style="fill:#8eccff;fill-opacity:0.18;"/>
        <path id="Hexagon15" serif:id="Hexagon" d="M1525.15,3289.8C1528.82,3292.14 1568.51,3368.57 1568.32,3372.92C1568.12,3377.26 1521.78,3449.85 1517.92,3451.86C1514.06,3453.86 1428.03,3450.02 1424.36,3447.68C1420.69,3445.34 1381,3368.91 1381.2,3364.57C1381.39,3360.22 1427.73,3287.63 1431.59,3285.63C1435.45,3283.62 1521.49,3287.46 1525.15,3289.8Z" style="fill:#8eccff;fill-opacity:0.18;"/>
        <path id="Hexagon16" serif:id="Hexagon" d="M1668.47,3381.3C1672.14,3383.64 1711.83,3460.07 1711.63,3464.41C1711.44,3468.76 1665.1,3541.35 1661.24,3543.35C1657.38,3545.36 1571.34,3541.52 1567.68,3539.18C1564.01,3536.84 1524.32,3460.41 1524.51,3456.06C1524.7,3451.72 1571.05,3379.13 1574.91,3377.12C1578.77,3375.12 1664.8,3378.96 1668.47,3381.3Z" style="fill:#8eccff;fill-opacity:0.18;"/>
        <path id="Hexagon17" serif:id="Hexagon" d="M1954.42,3563.85C1958.08,3566.19 1997.78,3642.62 1997.58,3646.96C1997.39,3651.31 1951.05,3723.9 1947.19,3725.9C1943.33,3727.91 1857.29,3724.07 1853.62,3721.73C1849.96,3719.39 1810.26,3642.96 1810.46,3638.61C1810.65,3634.27 1856.99,3561.68 1860.85,3559.68C1864.72,3557.67 1950.75,3561.51 1954.42,3563.85Z" style="fill:#8eccff;fill-opacity:0.18;"/>
        <path id="Hexagon18" serif:id="Hexagon" d="M2097.39,3655.13C2101.06,3657.47 2140.75,3733.89 2140.55,3738.24C2140.36,3742.59 2094.02,3815.17 2090.16,3817.18C2086.3,3819.18 2000.26,3815.35 1996.6,3813.01C1992.93,3810.66 1953.24,3734.24 1953.43,3729.89C1953.63,3725.55 1999.97,3652.96 2003.83,3650.95C2007.69,3648.95 2093.72,3652.78 2097.39,3655.13Z" style="fill:#8eccff;fill-opacity:0.18;"/>
        <path id="Hexagon19" serif:id="Hexagon" d="M1803.72,3642.63C1807.38,3644.97 1847.08,3721.4 1846.88,3725.74C1846.69,3730.09 1800.35,3802.68 1796.49,3804.68C1792.63,3806.69 1706.59,3802.85 1702.92,3800.51C1699.26,3798.17 1659.57,3721.74 1659.76,3717.39C1659.95,3713.05 1706.3,3640.46 1710.15,3638.45C1714.02,3636.45 1800.05,3640.29 1803.72,3642.63Z" style="fill:#8eccff;fill-opacity:0.18;"/>
    </g>
    <g id="Hexagons3" serif:id="Hexagons">
        <path id="Hexagon20" serif:id="Hexagon" d="M295.703,2407.67C298.766,2403.84 389.287,2368.35 394.142,2369.08C398.998,2369.82 474.992,2430.46 476.784,2435.04C478.577,2439.61 464.05,2535.74 460.987,2539.58C457.924,2543.42 367.403,2578.91 362.548,2578.18C357.692,2577.44 281.698,2516.79 279.906,2512.22C278.113,2507.65 292.64,2411.51 295.703,2407.67Z" style="fill:#8eccff;fill-opacity:0.18;"/>
        <path id="Hexagon21" serif:id="Hexagon" d="M415.444,2257.64C418.507,2253.8 509.028,2218.31 513.883,2219.04C518.739,2219.78 594.733,2280.43 596.525,2285C598.318,2289.57 583.791,2385.71 580.728,2389.55C577.665,2393.38 487.144,2428.87 482.289,2428.14C477.433,2427.41 401.439,2366.76 399.647,2362.18C397.854,2357.61 412.381,2261.47 415.444,2257.64Z" style="fill:#8eccff;fill-opacity:0.18;"/>
        <path id="Hexagon22" serif:id="Hexagon" d="M654.354,1958.28C657.418,1954.44 747.938,1918.95 752.794,1919.69C757.649,1920.42 833.643,1981.07 835.435,1985.64C837.228,1990.21 822.701,2086.35 819.638,2090.19C816.575,2094.03 726.055,2129.51 721.199,2128.78C716.343,2128.05 640.35,2067.4 638.557,2062.83C636.765,2058.25 651.291,1962.12 654.354,1958.28Z" style="fill:#8eccff;fill-opacity:0.18;"/>
        <path id="Hexagon23" serif:id="Hexagon" d="M773.81,1808.6C776.873,1804.76 867.393,1769.27 872.249,1770.01C877.104,1770.74 953.098,1831.39 954.891,1835.96C956.683,1840.53 942.157,1936.67 939.093,1940.51C936.03,1944.35 845.51,1979.84 840.654,1979.1C835.798,1978.37 759.805,1917.72 758.012,1913.15C756.22,1908.58 770.746,1812.44 773.81,1808.6Z" style="fill:#8eccff;fill-opacity:0.18;"/>
        <path id="Hexagon24" serif:id="Hexagon" d="M35.406,2199.94C38.469,2196.1 128.99,2160.61 133.845,2161.35C138.701,2162.08 214.695,2222.73 216.487,2227.3C218.28,2231.87 203.753,2328.01 200.69,2331.85C197.627,2335.68 107.106,2371.17 102.251,2370.44C97.395,2369.7 21.401,2309.06 19.609,2304.48C17.816,2299.91 32.343,2203.78 35.406,2199.94Z" style="fill:#8eccff;fill-opacity:0.18;"/>
        <path id="Hexagon25" serif:id="Hexagon" d="M155.147,2049.9C158.21,2046.06 248.731,2010.57 253.586,2011.31C258.442,2012.04 334.436,2072.69 336.228,2077.26C338.021,2081.83 323.494,2177.97 320.431,2181.81C317.368,2185.65 226.847,2221.14 221.992,2220.4C217.136,2219.67 141.142,2159.02 139.35,2154.45C137.557,2149.88 152.084,2053.74 155.147,2049.9Z" style="fill:#8eccff;fill-opacity:0.18;"/>
        <path id="Hexagon26" serif:id="Hexagon" d="M274.602,1900.22C277.665,1896.38 368.186,1860.89 373.041,1861.63C377.897,1862.36 453.891,1923.01 455.683,1927.58C457.476,1932.15 442.949,2028.29 439.886,2032.13C436.823,2035.97 346.302,2071.46 341.447,2070.72C336.591,2069.99 260.597,2009.34 258.805,2004.77C257.013,2000.2 271.539,1904.06 274.602,1900.22Z" style="fill:#8eccff;fill-opacity:0.18;"/>
        <g id="Hexagons4" serif:id="Hexagons">
            <path id="Hexagon27" serif:id="Hexagon" d="M1090.36,1775.91C1094.91,1778.87 1143.75,1874.67 1143.47,1880.1C1143.18,1885.52 1084.63,1975.73 1079.79,1978.19C1074.95,1980.66 967.56,1975.05 963.004,1972.1C958.448,1969.14 909.607,1873.33 909.89,1867.9C910.173,1862.48 968.726,1772.28 973.565,1769.81C978.404,1767.34 1085.8,1772.95 1090.36,1775.91Z" style="fill:#8eccff;fill-opacity:0.18;"/>
            <path id="Hexagon28" serif:id="Hexagon" d="M1268.44,1891.51C1273,1894.47 1321.84,1990.28 1321.56,1995.7C1321.28,2001.13 1262.72,2091.33 1257.88,2093.8C1253.05,2096.26 1145.65,2090.66 1141.09,2087.7C1136.54,2084.74 1087.7,1988.93 1087.98,1983.51C1088.26,1978.08 1146.82,1887.88 1151.65,1885.41C1156.5,1882.95 1263.89,1888.55 1268.44,1891.51Z" style="fill:#8eccff;fill-opacity:0.18;"/>
            <path id="Hexagon29" serif:id="Hexagon" d="M1623.78,2122.16C1628.33,2125.12 1677.17,2220.93 1676.89,2226.36C1676.61,2231.78 1618.05,2321.98 1613.21,2324.45C1608.38,2326.92 1500.98,2321.31 1496.42,2318.35C1491.87,2315.39 1443.03,2219.59 1443.31,2214.16C1443.59,2208.74 1502.15,2118.53 1506.99,2116.07C1511.83,2113.6 1619.22,2119.21 1623.78,2122.16Z" style="fill:#8eccff;fill-opacity:0.18;"/>
            <path id="Hexagon30" serif:id="Hexagon" d="M1801.44,2237.49C1806,2240.45 1854.84,2336.26 1854.55,2341.68C1854.27,2347.11 1795.72,2437.31 1790.88,2439.78C1786.04,2442.24 1678.65,2436.64 1674.09,2433.68C1669.53,2430.72 1620.69,2334.91 1620.98,2329.49C1621.26,2324.06 1679.81,2233.86 1684.65,2231.39C1689.49,2228.93 1796.88,2234.53 1801.44,2237.49Z" style="fill:#8eccff;fill-opacity:0.18;"/>
            <path id="Hexagon31" serif:id="Hexagon" d="M1469,1582.55C1473.56,1585.5 1522.4,1681.31 1522.12,1686.74C1521.83,1692.16 1463.28,1782.36 1458.44,1784.83C1453.6,1787.3 1346.21,1781.69 1341.65,1778.73C1337.1,1775.78 1288.26,1679.97 1288.54,1674.54C1288.82,1669.12 1347.37,1578.91 1352.21,1576.45C1357.05,1573.98 1464.45,1579.59 1469,1582.55Z" style="fill:#8eccff;fill-opacity:0.18;"/>
            <path id="Hexagon32" serif:id="Hexagon" d="M1646.67,1697.87C1651.22,1700.83 1700.07,1796.64 1699.78,1802.06C1699.5,1807.49 1640.94,1897.69 1636.11,1900.16C1631.27,1902.62 1523.87,1897.02 1519.32,1894.06C1514.76,1891.1 1465.92,1795.29 1466.2,1789.87C1466.49,1784.44 1525.04,1694.24 1529.88,1691.78C1534.72,1689.31 1642.11,1694.91 1646.67,1697.87Z" style="fill:#8eccff;fill-opacity:0.18;"/>
            <path id="Hexagon33" serif:id="Hexagon" d="M1824.33,1813.2C1828.89,1816.16 1877.73,1911.97 1877.45,1917.39C1877.16,1922.81 1818.61,2013.02 1813.77,2015.48C1808.93,2017.95 1701.54,2012.34 1696.98,2009.39C1692.43,2006.43 1643.59,1910.62 1643.87,1905.19C1644.15,1899.77 1702.7,1809.57 1707.54,1807.1C1712.38,1804.63 1819.78,1810.24 1824.33,1813.2Z" style="fill:#8eccff;fill-opacity:0.18;"/>
            <path id="Hexagon34" serif:id="Hexagon" d="M2002,1928.53C2006.55,1931.48 2055.39,2027.29 2055.11,2032.72C2054.83,2038.14 1996.28,2128.34 1991.44,2130.81C1986.6,2133.28 1879.2,2127.67 1874.65,2124.71C1870.09,2121.76 1821.25,2025.95 1821.53,2020.52C1821.82,2015.1 1880.37,1924.89 1885.21,1922.43C1890.05,1919.96 1997.44,1925.57 2002,1928.53Z" style="fill:#8eccff;fill-opacity:0.18;"/>
            <path id="Hexagon35" serif:id="Hexagon" d="M1279.66,1679.21C1284.21,1682.17 1333.06,1777.98 1332.77,1783.4C1332.49,1788.83 1273.93,1879.03 1269.1,1881.5C1264.26,1883.97 1156.86,1878.36 1152.31,1875.4C1147.75,1872.44 1098.91,1776.63 1099.19,1771.21C1099.48,1765.79 1158.03,1675.58 1162.87,1673.12C1167.71,1670.65 1275.1,1676.26 1279.66,1679.21Z" style="fill:#8eccff;fill-opacity:0.18;"/>
            <path id="Hexagon36" serif:id="Hexagon" d="M1990.74,2140.8C1995.3,2143.75 2044.14,2239.56 2043.86,2244.99C2043.57,2250.41 1985.02,2340.62 1980.18,2343.08C1975.34,2345.55 1867.95,2339.94 1863.39,2336.98C1858.84,2334.03 1810,2238.22 1810.28,2232.79C1810.56,2227.37 1869.12,2137.17 1873.95,2134.7C1878.79,2132.23 1986.19,2137.84 1990.74,2140.8Z" style="fill:#8eccff;fill-opacity:0.18;"/>
        </g>
        <path id="Hexagon37" serif:id="Hexagon" d="M345.152,2078.77C348.215,2074.93 438.735,2039.44 443.591,2040.17C448.447,2040.91 524.441,2101.56 526.233,2106.13C528.025,2110.7 513.499,2206.84 510.436,2210.68C507.372,2214.51 416.852,2250 411.997,2249.27C407.141,2248.54 331.147,2187.89 329.355,2183.32C327.562,2178.74 342.089,2082.61 345.152,2078.77Z" style="fill:#8eccff;fill-opacity:0.18;"/>
        <path id="Hexagon38" serif:id="Hexagon" d="M703.517,1629.73C706.581,1625.89 797.101,1590.4 801.957,1591.14C806.812,1591.87 882.806,1652.52 884.598,1657.09C886.391,1661.66 871.864,1757.8 868.801,1761.64C865.738,1765.48 775.218,1800.97 770.362,1800.23C765.506,1799.5 689.513,1738.85 687.72,1734.28C685.928,1729.71 700.454,1633.57 703.517,1629.73Z" style="fill:#8eccff;fill-opacity:0.18;"/>
    </g>
    <g id="Hexagons5" serif:id="Hexagons">
        <path id="Hexagon39" serif:id="Hexagon" d="M1114.22,1244.2C1117.1,1246.14 1147.3,1308.07 1147.06,1311.55C1146.81,1315.02 1108.28,1372.13 1105.15,1373.66C1102.02,1375.18 1033.29,1370.37 1030.4,1368.42C1027.52,1366.48 997.323,1304.54 997.566,1301.07C997.809,1297.6 1036.35,1240.49 1039.47,1238.96C1042.6,1237.43 1111.33,1242.25 1114.22,1244.2Z" style="fill:#8eccff;fill-opacity:0.18;"/>
        <path id="Hexagon40" serif:id="Hexagon" d="M1339.48,1396.18C1342.37,1398.13 1372.56,1460.06 1372.32,1463.53C1372.07,1467 1333.54,1524.12 1330.41,1525.64C1327.28,1527.17 1258.55,1522.35 1255.66,1520.41C1252.78,1518.46 1222.59,1456.53 1222.83,1453.06C1223.07,1449.59 1261.61,1392.47 1264.74,1390.94C1267.86,1389.42 1336.6,1394.24 1339.48,1396.18Z" style="fill:#8eccff;fill-opacity:0.18;"/>
        <path id="Hexagon41" serif:id="Hexagon" d="M1451.98,1472.08C1454.86,1474.03 1485.06,1535.96 1484.81,1539.43C1484.57,1542.9 1446.03,1600.02 1442.91,1601.54C1439.78,1603.07 1371.05,1598.25 1368.16,1596.31C1365.28,1594.36 1335.08,1532.43 1335.33,1528.96C1335.57,1525.49 1374.1,1468.37 1377.23,1466.85C1380.36,1465.32 1449.09,1470.14 1451.98,1472.08Z" style="fill:#8eccff;fill-opacity:0.18;"/>
        <path id="Hexagon42" serif:id="Hexagon" d="M1564.47,1547.98C1567.36,1549.93 1597.55,1611.86 1597.31,1615.33C1597.07,1618.81 1558.53,1675.92 1555.4,1677.45C1552.28,1678.97 1483.54,1674.15 1480.66,1672.21C1477.77,1670.26 1447.58,1608.33 1447.82,1604.86C1448.06,1601.39 1486.6,1544.27 1489.73,1542.75C1492.86,1541.22 1561.59,1546.04 1564.47,1547.98Z" style="fill:#8eccff;fill-opacity:0.18;"/>
        <path id="Hexagon43" serif:id="Hexagon" d="M1246.21,1048.56C1249.1,1050.51 1279.29,1112.44 1279.05,1115.91C1278.81,1119.38 1240.27,1176.5 1237.14,1178.02C1234.02,1179.55 1165.28,1174.73 1162.4,1172.79C1159.51,1170.84 1129.32,1108.91 1129.56,1105.44C1129.81,1101.97 1168.34,1044.85 1171.47,1043.33C1174.6,1041.8 1243.33,1046.62 1246.21,1048.56Z" style="fill:#8eccff;fill-opacity:0.18;"/>
        <path id="Hexagon44" serif:id="Hexagon" d="M1358.98,1124.64C1361.86,1126.59 1392.06,1188.52 1391.82,1191.99C1391.57,1195.46 1353.04,1252.58 1349.91,1254.11C1346.78,1255.63 1278.05,1250.82 1275.16,1248.87C1272.28,1246.92 1242.08,1184.99 1242.33,1181.52C1242.57,1178.05 1281.11,1120.93 1284.23,1119.41C1287.36,1117.88 1356.09,1122.7 1358.98,1124.64Z" style="fill:#8eccff;fill-opacity:0.18;"/>
        <path id="Hexagon45" serif:id="Hexagon" d="M1236.59,1184.41C1239.47,1186.36 1269.66,1248.29 1269.42,1251.76C1269.18,1255.23 1230.64,1312.35 1227.52,1313.87C1224.39,1315.4 1155.65,1310.58 1152.77,1308.64C1149.89,1306.69 1119.69,1244.76 1119.93,1241.29C1120.18,1237.82 1158.71,1180.7 1161.84,1179.17C1164.97,1177.65 1233.7,1182.46 1236.59,1184.41Z" style="fill:#8eccff;fill-opacity:0.18;"/>
        <path id="Hexagon46" serif:id="Hexagon" d="M1686.84,1488.2C1689.73,1490.15 1719.92,1552.08 1719.68,1555.55C1719.43,1559.02 1680.9,1616.13 1677.77,1617.66C1674.64,1619.19 1605.91,1614.37 1603.03,1612.42C1600.14,1610.48 1569.94,1548.55 1570.19,1545.08C1570.43,1541.6 1608.97,1484.49 1612.1,1482.96C1615.22,1481.44 1683.95,1486.25 1686.84,1488.2Z" style="fill:#8eccff;fill-opacity:0.18;"/>
    </g>
    <g id="Hexagons6" serif:id="Hexagons">
        <path id="Hexagon47" serif:id="Hexagon" d="M49.934,1004.76C53.118,1006.83 87.224,1073.84 87.024,1077.63C86.823,1081.42 45.846,1144.46 42.461,1146.19C39.077,1147.91 -36.007,1143.94 -39.191,1141.87C-42.375,1139.8 -76.481,1072.8 -76.281,1069C-76.08,1065.21 -35.103,1002.17 -31.718,1000.45C-28.334,998.724 46.75,1002.69 49.934,1004.76Z" style="fill:#8eccff;fill-opacity:0.18;"/>
        <path id="Hexagon48" serif:id="Hexagon" d="M174.398,1085.66C177.582,1087.74 211.688,1154.74 211.487,1158.54C211.287,1162.33 170.309,1225.37 166.925,1227.09C163.54,1228.81 88.457,1224.85 85.272,1222.78C82.088,1220.71 47.982,1153.7 48.183,1149.91C48.383,1146.11 89.361,1083.07 92.745,1081.35C96.13,1079.63 171.214,1083.6 174.398,1085.66Z" style="fill:#8eccff;fill-opacity:0.18;"/>
        <path id="Hexagon49" serif:id="Hexagon" d="M422.731,1247.09C425.915,1249.16 460.021,1316.16 459.82,1319.96C459.62,1323.75 418.642,1386.79 415.258,1388.51C411.873,1390.24 336.79,1386.27 333.606,1384.2C330.421,1382.13 296.315,1315.12 296.516,1311.33C296.716,1307.54 337.694,1244.49 341.078,1242.77C344.463,1241.05 419.547,1245.02 422.731,1247.09Z" style="fill:#8eccff;fill-opacity:0.18;"/>
        <path id="Hexagon50" serif:id="Hexagon" d="M546.897,1327.8C550.081,1329.87 584.187,1396.88 583.987,1400.67C583.786,1404.46 542.809,1467.5 539.424,1469.22C536.04,1470.94 460.956,1466.98 457.772,1464.91C454.588,1462.84 420.482,1395.83 420.682,1392.04C420.883,1388.25 461.86,1325.2 465.245,1323.48C468.629,1321.76 543.713,1325.73 546.897,1327.8Z" style="fill:#8eccff;fill-opacity:0.18;"/>
        <path id="Hexagon51" serif:id="Hexagon" d="M314.756,869.735C317.94,871.805 352.046,938.813 351.846,942.605C351.646,946.397 310.668,1009.44 307.283,1011.16C303.899,1012.88 228.815,1008.92 225.631,1006.85C222.447,1004.78 188.341,937.769 188.541,933.976C188.742,930.184 229.72,867.143 233.104,865.42C236.488,863.698 311.572,867.665 314.756,869.735Z" style="fill:#8eccff;fill-opacity:0.18;"/>
        <path id="Hexagon52" serif:id="Hexagon" d="M438.923,950.446C442.107,952.515 476.213,1019.52 476.012,1023.32C475.812,1027.11 434.834,1090.15 431.45,1091.87C428.065,1093.59 352.982,1089.63 349.798,1087.56C346.614,1085.49 312.508,1018.48 312.708,1014.69C312.908,1010.89 353.886,947.854 357.27,946.131C360.655,944.409 435.739,948.376 438.923,950.446Z" style="fill:#8eccff;fill-opacity:0.18;"/>
        <path id="Hexagon53" serif:id="Hexagon" d="M430.961,1098.85C434.145,1100.92 468.251,1167.93 468.05,1171.72C467.85,1175.52 426.872,1238.56 423.488,1240.28C420.103,1242 345.019,1238.03 341.835,1235.96C338.651,1233.89 304.545,1166.89 304.746,1163.09C304.946,1159.3 345.924,1096.26 349.308,1094.54C352.693,1092.82 427.776,1096.78 430.961,1098.85Z" style="fill:#8eccff;fill-opacity:0.18;"/>
        <path id="Hexagon54" serif:id="Hexagon" d="M679.294,1260.27C682.478,1262.34 716.584,1329.35 716.383,1333.14C716.183,1336.94 675.205,1399.98 671.821,1401.7C668.436,1403.42 593.352,1399.45 590.168,1397.39C586.984,1395.32 552.878,1328.31 553.079,1324.52C553.279,1320.72 594.257,1257.68 597.641,1255.96C601.026,1254.24 676.109,1258.2 679.294,1260.27Z" style="fill:#8eccff;fill-opacity:0.18;"/>
    </g>
    <g id="Hexagons7" serif:id="Hexagons">
        <path id="Hexagon55" serif:id="Hexagon" d="M1383.02,708.879C1387.91,707.959 1480.88,740.618 1484.12,744.394C1487.36,748.17 1505.56,845.008 1503.91,849.703C1502.26,854.399 1427.5,918.579 1422.61,919.498C1417.71,920.417 1324.75,887.759 1321.51,883.983C1318.27,880.206 1300.07,783.368 1301.72,778.673C1303.37,773.978 1378.13,709.798 1383.02,708.879Z" style="fill:#8eccff;fill-opacity:0.18;"/>
        <path id="Hexagon56" serif:id="Hexagon" d="M1955.68,601.257C1960.57,600.338 2053.54,632.996 2056.78,636.772C2060.02,640.548 2078.22,737.386 2076.57,742.082C2074.92,746.777 2000.16,810.957 1995.27,811.876C1990.37,812.795 1897.41,780.137 1894.17,776.361C1890.93,772.585 1872.73,675.747 1874.38,671.051C1876.03,666.356 1950.79,602.176 1955.68,601.257Z" style="fill:#8eccff;fill-opacity:0.18;"/>
        <path id="Hexagon57" serif:id="Hexagon" d="M2146.42,565.412C2151.31,564.493 2244.27,597.151 2247.51,600.927C2250.76,604.703 2268.95,701.541 2267.3,706.237C2265.66,710.932 2190.89,775.112 2186,776.031C2181.11,776.95 2088.14,744.292 2084.9,740.516C2081.66,736.74 2063.46,639.902 2065.11,635.206C2066.76,630.511 2141.53,566.331 2146.42,565.412Z" style="fill:#8eccff;fill-opacity:0.18;"/>
        <path id="Hexagon58" serif:id="Hexagon" d="M1320.69,377.185C1325.58,376.266 1418.54,408.924 1421.78,412.7C1425.03,416.476 1443.22,513.314 1441.57,518.01C1439.92,522.705 1365.16,586.885 1360.27,587.804C1355.38,588.723 1262.41,556.065 1259.17,552.289C1255.93,548.513 1237.73,451.675 1239.38,446.979C1241.03,442.284 1315.8,378.104 1320.69,377.185Z" style="fill:#8eccff;fill-opacity:0.18;"/>
        <path id="Hexagon59" serif:id="Hexagon" d="M1702.61,305.409C1707.5,304.489 1800.47,337.148 1803.71,340.924C1806.95,344.7 1825.15,441.538 1823.5,446.233C1821.85,450.929 1747.09,515.109 1742.19,516.028C1737.3,516.947 1644.34,484.289 1641.1,480.513C1637.86,476.736 1619.66,379.898 1621.31,375.203C1622.96,370.508 1697.72,306.328 1702.61,305.409Z" style="fill:#8eccff;fill-opacity:0.18;"/>
        <path id="Hexagon60" serif:id="Hexagon" d="M1893.35,269.563C1898.24,268.644 1991.2,301.302 1994.44,305.078C1997.68,308.855 2015.88,405.693 2014.23,410.388C2012.58,415.083 1937.82,479.263 1932.93,480.183C1928.04,481.102 1835.07,448.444 1831.83,444.667C1828.59,440.891 1810.39,344.053 1812.04,339.358C1813.69,334.662 1888.45,270.482 1893.35,269.563Z" style="fill:#8eccff;fill-opacity:0.18;"/>
        <path id="Hexagon61" serif:id="Hexagon" d="M1829.35,453.294C1834.24,452.375 1927.21,485.033 1930.45,488.809C1933.69,492.586 1951.89,589.424 1950.24,594.119C1948.59,598.814 1873.83,662.994 1868.93,663.913C1864.04,664.833 1771.08,632.174 1767.84,628.398C1764.6,624.622 1746.4,527.784 1748.05,523.089C1749.7,518.393 1824.46,454.213 1829.35,453.294Z" style="fill:#8eccff;fill-opacity:0.18;"/>
    </g>
    <g id="Hexagons8" serif:id="Hexagons">
        <path id="Hexagon62" serif:id="Hexagon" d="M1287.68,531.3C1290.58,533.235 1321.02,595.046 1320.79,598.518C1320.56,601.99 1282.25,659.259 1279.13,660.796C1276.01,662.334 1207.26,657.792 1204.36,655.857C1201.47,653.922 1171.03,592.111 1171.26,588.639C1171.49,585.167 1209.8,527.898 1212.92,526.361C1216.04,524.823 1284.79,529.365 1287.68,531.3Z" style="fill:#8eccff;fill-opacity:0.18;"/>
        <path id="Hexagon63" serif:id="Hexagon" d="M1626.34,757.842C1629.24,759.777 1659.68,821.588 1659.45,825.06C1659.22,828.533 1620.91,885.801 1617.79,887.339C1614.67,888.876 1545.92,884.334 1543.02,882.399C1540.13,880.464 1509.69,818.654 1509.92,815.181C1510.15,811.709 1548.46,754.44 1551.58,752.903C1554.7,751.365 1623.45,755.907 1626.34,757.842Z" style="fill:#8eccff;fill-opacity:0.18;"/>
        <path id="Hexagon64" serif:id="Hexagon" d="M1739.14,833.296C1742.03,835.231 1772.48,897.042 1772.25,900.514C1772.02,903.986 1733.71,961.255 1730.59,962.792C1727.46,964.33 1658.71,959.788 1655.82,957.853C1652.93,955.918 1622.49,894.107 1622.72,890.635C1622.95,887.163 1661.26,829.894 1664.38,828.356C1667.5,826.819 1736.25,831.361 1739.14,833.296Z" style="fill:#8eccff;fill-opacity:0.18;"/>
        <path id="Hexagon65" serif:id="Hexagon" d="M1870.36,637.138C1873.25,639.072 1903.69,700.883 1903.46,704.356C1903.23,707.828 1864.92,765.096 1861.8,766.634C1858.68,768.171 1789.93,763.629 1787.04,761.694C1784.15,759.76 1753.7,697.949 1753.93,694.477C1754.16,691.004 1792.47,633.736 1795.59,632.198C1798.72,630.661 1867.47,635.203 1870.36,637.138Z" style="fill:#8eccff;fill-opacity:0.18;"/>
        <path id="Hexagon66" serif:id="Hexagon" d="M1409.81,471.029C1412.7,472.964 1443.14,534.775 1442.92,538.247C1442.69,541.72 1404.38,598.988 1401.26,600.526C1398.13,602.063 1329.38,597.521 1326.49,595.586C1323.6,593.651 1293.16,531.84 1293.39,528.368C1293.62,524.896 1331.92,467.627 1335.05,466.09C1338.17,464.552 1406.92,469.094 1409.81,471.029Z" style="fill:#8eccff;fill-opacity:0.18;"/>
        <path id="Hexagon67" serif:id="Hexagon" d="M1861.27,773.025C1864.16,774.96 1894.6,836.771 1894.38,840.243C1894.14,843.715 1855.84,900.984 1852.72,902.521C1849.59,904.059 1780.84,899.517 1777.95,897.582C1775.06,895.647 1744.62,833.836 1744.85,830.364C1745.08,826.892 1783.38,769.623 1786.51,768.086C1789.63,766.548 1858.38,771.09 1861.27,773.025Z" style="fill:#8eccff;fill-opacity:0.18;"/>
    </g>
    <g id="Hexagons9" serif:id="Hexagons">
        <path id="Hexagon68" serif:id="Hexagon" d="M494.874,1232.83C497.582,1230.64 565.652,1219.98 568.899,1221.23C572.145,1222.49 615.417,1276.1 615.955,1279.54C616.494,1282.98 591.696,1347.26 588.987,1349.45C586.279,1351.63 518.21,1362.3 514.963,1361.05C511.716,1359.79 468.445,1306.17 467.906,1302.74C467.367,1299.3 492.166,1235.02 494.874,1232.83Z" style="fill:#8eccff;fill-opacity:0.18;"/>
        <path id="Hexagon69" serif:id="Hexagon" d="M600.733,1147.4C603.441,1145.21 671.511,1134.55 674.757,1135.8C678.004,1137.05 721.276,1190.67 721.814,1194.11C722.353,1197.55 697.554,1261.83 694.846,1264.02C692.138,1266.2 624.068,1276.87 620.822,1275.61C617.575,1274.36 574.304,1220.74 573.765,1217.31C573.226,1213.87 598.025,1149.59 600.733,1147.4Z" style="fill:#8eccff;fill-opacity:0.18;"/>
        <path id="Hexagon70" serif:id="Hexagon" d="M811.945,976.943C814.653,974.757 882.723,964.092 885.97,965.344C889.217,966.597 932.488,1020.21 933.027,1023.65C933.565,1027.09 908.767,1091.37 906.059,1093.56C903.351,1095.74 835.281,1106.41 832.034,1105.16C828.787,1103.9 785.516,1050.29 784.977,1046.85C784.439,1043.41 809.237,979.128 811.945,976.943Z" style="fill:#8eccff;fill-opacity:0.18;"/>
        <path id="Hexagon71" serif:id="Hexagon" d="M917.551,891.715C920.259,889.529 988.329,878.864 991.576,880.116C994.823,881.369 1038.09,934.986 1038.63,938.424C1039.17,941.862 1014.37,1006.14 1011.67,1008.33C1008.96,1010.52 940.887,1021.18 937.64,1019.93C934.393,1018.68 891.122,965.059 890.583,961.621C890.045,958.183 914.843,893.9 917.551,891.715Z" style="fill:#8eccff;fill-opacity:0.18;"/>
        <path id="Hexagon72" serif:id="Hexagon" d="M663.73,793.29C666.438,791.104 734.508,780.439 737.755,781.691C741.002,782.944 784.273,836.561 784.812,839.999C785.351,843.438 760.552,907.72 757.844,909.906C755.136,912.091 687.066,922.757 683.819,921.504C680.573,920.252 637.301,866.634 636.763,863.196C636.224,859.758 661.022,795.475 663.73,793.29Z" style="fill:#8eccff;fill-opacity:0.18;"/>
        <path id="Hexagon73" serif:id="Hexagon" d="M769.337,708.062C772.045,705.876 840.114,695.211 843.361,696.463C846.608,697.716 889.879,751.333 890.418,754.771C890.957,758.209 866.158,822.492 863.45,824.678C860.742,826.863 792.672,837.529 789.426,836.276C786.179,835.024 742.907,781.406 742.369,777.968C741.83,774.53 766.628,710.247 769.337,708.062Z" style="fill:#8eccff;fill-opacity:0.18;"/>
        <path id="Hexagon74" serif:id="Hexagon" d="M579.542,1012.87C582.25,1010.68 650.32,1000.02 653.567,1001.27C656.814,1002.52 700.085,1056.14 700.624,1059.58C701.162,1063.01 676.364,1127.3 673.656,1129.48C670.948,1131.67 602.878,1142.33 599.631,1141.08C596.384,1139.83 553.113,1086.21 552.574,1082.77C552.036,1079.34 576.834,1015.05 579.542,1012.87Z" style="fill:#8eccff;fill-opacity:0.18;"/>
        <path id="Hexagon75" serif:id="Hexagon" d="M896.361,757.182C899.069,754.997 967.139,744.331 970.386,745.584C973.632,746.836 1016.9,800.454 1017.44,803.892C1017.98,807.33 993.183,871.613 990.474,873.798C987.766,875.984 919.697,886.649 916.45,885.397C913.203,884.144 869.932,830.527 869.393,827.089C868.854,823.65 893.653,759.368 896.361,757.182Z" style="fill:#8eccff;fill-opacity:0.18;"/>
    </g>
    <g id="Hexagons10" serif:id="Hexagons">
        <path id="Hexagon76" serif:id="Hexagon" d="M3.871,3771.11C8.527,3768.04 118.696,3761.56 123.678,3764.06C128.661,3766.55 189.362,3858.72 189.689,3864.28C190.017,3869.85 140.548,3968.5 135.893,3971.57C131.238,3974.63 21.069,3981.12 16.086,3978.62C11.103,3976.12 -49.597,3883.95 -49.925,3878.39C-50.252,3872.82 -0.784,3774.17 3.871,3771.11Z" style="fill:#8eccff;fill-opacity:0.18;"/>
        <path id="Hexagon77" serif:id="Hexagon" d="M185.84,3651.26C190.495,3648.2 300.664,3641.71 305.647,3644.21C310.629,3646.71 371.33,3738.88 371.658,3744.44C371.985,3750.01 322.516,3848.66 317.861,3851.72C313.206,3854.79 203.037,3861.27 198.054,3858.78C193.072,3856.28 132.371,3764.11 132.044,3758.55C131.716,3752.98 181.185,3654.33 185.84,3651.26Z" style="fill:#8eccff;fill-opacity:0.18;"/>
        <path id="Hexagon78" serif:id="Hexagon" d="M367.374,3531.71C372.029,3528.64 482.198,3522.16 487.181,3524.65C492.163,3527.15 552.864,3619.32 553.192,3624.88C553.519,3630.45 504.051,3729.1 499.395,3732.17C494.74,3735.23 384.571,3741.72 379.588,3739.22C374.606,3736.72 313.905,3644.55 313.578,3638.99C313.25,3633.42 362.719,3534.77 367.374,3531.71Z" style="fill:#8eccff;fill-opacity:0.18;"/>
        <path id="Hexagon79" serif:id="Hexagon" d="M730.442,3292.59C735.097,3289.53 845.266,3283.04 850.249,3285.54C855.232,3288.04 915.932,3380.2 916.26,3385.77C916.587,3391.33 867.119,3489.99 862.463,3493.05C857.808,3496.12 747.639,3502.6 742.656,3500.1C737.674,3497.61 676.973,3405.44 676.646,3399.87C676.318,3394.31 725.787,3295.66 730.442,3292.59Z" style="fill:#8eccff;fill-opacity:0.18;"/>
        <path id="Hexagon80" serif:id="Hexagon" d="M-22.074,3335.57C-17.419,3332.5 92.75,3326.02 97.733,3328.52C102.715,3331.02 163.416,3423.18 163.743,3428.75C164.071,3434.31 114.602,3532.96 109.947,3536.03C105.292,3539.1 -4.877,3545.58 -9.86,3543.08C-14.843,3540.58 -75.543,3448.42 -75.871,3442.85C-76.198,3437.29 -26.73,3338.64 -22.074,3335.57Z" style="fill:#8eccff;fill-opacity:0.18;"/>
        <path id="Hexagon81" serif:id="Hexagon" d="M340.994,3096.45C345.649,3093.39 455.818,3086.9 460.801,3089.4C465.783,3091.9 526.484,3184.07 526.811,3189.63C527.139,3195.2 477.67,3293.85 473.015,3296.91C468.36,3299.98 358.191,3306.47 353.208,3303.97C348.225,3301.47 287.525,3209.3 287.197,3203.74C286.87,3198.17 336.338,3099.52 340.994,3096.45Z" style="fill:#8eccff;fill-opacity:0.18;"/>
        <path id="Hexagon82" serif:id="Hexagon" d="M522.528,2976.9C527.183,2973.83 637.352,2967.35 642.335,2969.85C647.317,2972.34 708.018,3064.51 708.345,3070.08C708.673,3075.64 659.204,3174.29 654.549,3177.36C649.894,3180.42 539.725,3186.91 534.742,3184.41C529.76,3181.91 469.059,3089.74 468.731,3084.18C468.404,3078.62 517.872,2979.96 522.528,2976.9Z" style="fill:#8eccff;fill-opacity:0.18;"/>
        <path id="Hexagon83" serif:id="Hexagon" d="M717.447,3074.84C722.103,3071.77 832.272,3065.29 837.254,3067.78C842.237,3070.28 902.938,3162.45 903.265,3168.01C903.593,3173.58 854.124,3272.23 849.469,3275.3C844.814,3278.36 734.645,3284.85 729.662,3282.35C724.679,3279.85 663.979,3187.68 663.651,3182.12C663.324,3176.56 712.792,3077.9 717.447,3074.84Z" style="fill:#8eccff;fill-opacity:0.18;"/>
    </g>
    <g id="Hexagons11" serif:id="Hexagons">
        <path id="Hexagon84" serif:id="Hexagon" d="M527.691,2529.11C531.644,2532.77 563.257,2634.55 562.07,2639.8C560.882,2645.05 488.543,2723.32 483.402,2724.92C478.261,2726.51 374.308,2703 370.355,2699.35C366.401,2695.69 334.788,2593.91 335.976,2588.66C337.163,2583.41 409.503,2505.14 414.644,2503.54C419.785,2501.95 523.738,2525.46 527.691,2529.11Z" style="fill:#8eccff;fill-opacity:0.18;"/>
        <path id="Hexagon85" serif:id="Hexagon" d="M836.382,2814.42C840.335,2818.07 871.948,2919.85 870.761,2925.1C869.573,2930.35 797.233,3008.62 792.092,3010.22C786.952,3011.82 682.999,2988.3 679.045,2984.65C675.092,2981 643.479,2879.21 644.666,2873.96C645.854,2868.71 718.194,2790.44 723.334,2788.85C728.475,2787.25 832.428,2810.76 836.382,2814.42Z" style="fill:#8eccff;fill-opacity:0.18;"/>
        <path id="Hexagon86" serif:id="Hexagon" d="M990.543,2956.9C994.496,2960.55 1026.11,3062.34 1024.92,3067.59C1023.73,3072.84 951.394,3151.11 946.253,3152.7C941.113,3154.3 837.16,3130.78 833.206,3127.13C829.253,3123.48 797.64,3021.7 798.827,3016.45C800.015,3011.2 872.355,2932.93 877.495,2931.33C882.636,2929.73 986.589,2953.24 990.543,2956.9Z" style="fill:#8eccff;fill-opacity:0.18;"/>
        <path id="Hexagon87" serif:id="Hexagon" d="M1144.7,3099.38C1148.66,3103.03 1180.27,3204.82 1179.08,3210.07C1177.89,3215.32 1105.56,3293.59 1100.41,3295.18C1095.27,3296.78 991.321,3273.27 987.367,3269.61C983.414,3265.96 951.801,3164.18 952.988,3158.93C954.176,3153.68 1026.52,3075.41 1031.66,3073.81C1036.8,3072.21 1140.75,3095.73 1144.7,3099.38Z" style="fill:#8eccff;fill-opacity:0.18;"/>
        <path id="Hexagon88" serif:id="Hexagon" d="M930.001,2403.84C933.955,2407.5 965.568,2509.28 964.38,2514.53C963.193,2519.78 890.853,2598.05 885.712,2599.65C880.572,2601.24 776.618,2577.73 772.665,2574.08C768.712,2570.42 737.099,2468.64 738.286,2463.39C739.474,2458.14 811.814,2379.87 816.954,2378.27C822.095,2376.68 926.048,2400.19 930.001,2403.84Z" style="fill:#8eccff;fill-opacity:0.18;"/>
        <path id="Hexagon89" serif:id="Hexagon" d="M1084.16,2546.33C1088.12,2549.98 1119.73,2651.76 1118.54,2657.01C1117.35,2662.26 1045.01,2740.53 1039.87,2742.13C1034.73,2743.73 930.779,2720.21 926.826,2716.56C922.873,2712.91 891.26,2611.12 892.447,2605.87C893.635,2600.62 965.975,2522.35 971.115,2520.76C976.256,2519.16 1080.21,2542.67 1084.16,2546.33Z" style="fill:#8eccff;fill-opacity:0.18;"/>
        <path id="Hexagon90" serif:id="Hexagon" d="M1392.48,2831.29C1396.44,2834.94 1428.05,2936.73 1426.86,2941.98C1425.68,2947.23 1353.34,3025.5 1348.19,3027.09C1343.05,3028.69 1239.1,3005.18 1235.15,3001.52C1231.19,2997.87 1199.58,2896.09 1200.77,2890.84C1201.96,2885.59 1274.3,2807.32 1279.44,2805.72C1284.58,2804.12 1388.53,2827.64 1392.48,2831.29Z" style="fill:#8eccff;fill-opacity:0.18;"/>
        <path id="Hexagon91" serif:id="Hexagon" d="M728.828,2466.46C732.781,2470.12 764.394,2571.9 763.207,2577.15C762.019,2582.4 689.68,2660.67 684.539,2662.26C679.398,2663.86 575.445,2640.35 571.492,2636.69C567.539,2633.04 535.925,2531.26 537.113,2526.01C538.3,2520.76 610.64,2442.49 615.781,2440.89C620.922,2439.29 724.875,2462.81 728.828,2466.46Z" style="fill:#8eccff;fill-opacity:0.18;"/>
        <path id="Hexagon92" serif:id="Hexagon" d="M1191.68,2894.25C1195.63,2897.9 1227.25,2999.68 1226.06,3004.93C1224.87,3010.18 1152.53,3088.45 1147.39,3090.05C1142.25,3091.65 1038.3,3068.13 1034.34,3064.48C1030.39,3060.83 998.777,2959.04 999.964,2953.79C1001.15,2948.54 1073.49,2870.27 1078.63,2868.68C1083.77,2867.08 1187.73,2890.59 1191.68,2894.25Z" style="fill:#8eccff;fill-opacity:0.18;"/>
        <path id="Hexagon93" serif:id="Hexagon" d="M1345.84,3036.73C1349.79,3040.38 1381.41,3142.17 1380.22,3147.42C1379.03,3152.67 1306.69,3230.94 1301.55,3232.53C1296.41,3234.13 1192.46,3210.62 1188.5,3206.96C1184.55,3203.31 1152.94,3101.53 1154.12,3096.28C1155.31,3091.03 1227.65,3012.76 1232.79,3011.16C1237.93,3009.56 1341.89,3033.08 1345.84,3036.73Z" style="fill:#8eccff;fill-opacity:0.18;"/>
    </g>
    <g id="Hexagons12" serif:id="Hexagons">
        <path id="Hexagon94" serif:id="Hexagon" d="M1684.78,2579.1C1687.95,2581.59 1717.73,2655.72 1717.16,2659.72C1716.59,2663.71 1667.28,2726.56 1663.53,2728.07C1659.79,2729.57 1580.7,2718.29 1577.52,2715.8C1574.35,2713.31 1544.57,2639.18 1545.14,2635.18C1545.71,2631.19 1595.03,2568.33 1598.77,2566.83C1602.51,2565.32 1681.6,2576.6 1684.78,2579.1Z" style="fill:#8eccff;fill-opacity:0.18;"/>
        <path id="Hexagon95" serif:id="Hexagon" d="M2056.47,2870.72C2059.65,2873.21 2089.43,2947.34 2088.86,2951.34C2088.29,2955.33 2038.97,3018.19 2035.23,3019.69C2031.48,3021.2 1952.39,3009.92 1949.22,3007.43C1946.04,3004.93 1916.27,2930.8 1916.84,2926.8C1917.41,2922.81 1966.72,2859.96 1970.47,2858.45C1974.21,2856.95 2053.3,2868.23 2056.47,2870.72Z" style="fill:#8eccff;fill-opacity:0.18;"/>
        <path id="Hexagon96" serif:id="Hexagon" d="M2180.27,2967.85C2183.45,2970.34 2213.22,3044.47 2212.66,3048.47C2212.09,3052.46 2162.77,3115.32 2159.03,3116.82C2155.28,3118.33 2076.19,3107.05 2073.02,3104.56C2069.84,3102.07 2040.07,3027.93 2040.64,3023.93C2041.21,3019.94 2090.52,2957.09 2094.26,2955.58C2098.01,2954.08 2177.1,2965.36 2180.27,2967.85Z" style="fill:#8eccff;fill-opacity:0.18;"/>
        <path id="Hexagon97" serif:id="Hexagon" d="M1853.69,2363.8C1856.87,2366.29 1886.64,2440.43 1886.07,2444.42C1885.5,2448.42 1836.19,2511.27 1832.44,2512.78C1828.7,2514.28 1749.61,2503 1746.43,2500.51C1743.26,2498.02 1713.48,2423.88 1714.05,2419.89C1714.62,2415.89 1763.94,2353.04 1767.68,2351.54C1771.43,2350.03 1850.52,2361.31 1853.69,2363.8Z" style="fill:#8eccff;fill-opacity:0.18;"/>
        <path id="Hexagon98" serif:id="Hexagon" d="M1977.79,2461.17C1980.96,2463.66 2010.74,2537.79 2010.17,2541.79C2009.6,2545.78 1960.29,2608.64 1956.54,2610.14C1952.8,2611.64 1873.71,2600.36 1870.53,2597.87C1867.36,2595.38 1837.58,2521.25 1838.15,2517.25C1838.72,2513.26 1888.03,2450.4 1891.78,2448.9C1895.52,2447.39 1974.61,2458.68 1977.79,2461.17Z" style="fill:#8eccff;fill-opacity:0.18;"/>
        <path id="Hexagon99" serif:id="Hexagon" d="M2225.39,2655.43C2228.56,2657.92 2258.34,2732.05 2257.77,2736.05C2257.2,2740.04 2207.89,2802.9 2204.14,2804.4C2200.4,2805.9 2121.31,2794.62 2118.13,2792.13C2114.96,2789.64 2085.18,2715.51 2085.75,2711.51C2086.32,2707.52 2135.63,2644.66 2139.38,2643.16C2143.12,2641.66 2222.21,2652.94 2225.39,2655.43Z" style="fill:#8eccff;fill-opacity:0.18;"/>
        <path id="Hexagon100" serif:id="Hexagon" d="M1831.27,2520.12C1834.44,2522.61 1864.22,2596.74 1863.65,2600.74C1863.08,2604.73 1813.77,2667.59 1810.02,2669.09C1806.28,2670.6 1727.19,2659.32 1724.01,2656.83C1720.84,2654.33 1691.06,2580.2 1691.63,2576.2C1692.2,2572.21 1741.52,2509.36 1745.26,2507.85C1749,2506.35 1828.09,2517.63 1831.27,2520.12Z" style="fill:#8eccff;fill-opacity:0.18;"/>
        <path id="Hexagon101" serif:id="Hexagon" d="M2079.16,2714.61C2082.34,2717.1 2112.12,2791.24 2111.55,2795.23C2110.98,2799.23 2061.66,2862.08 2057.92,2863.59C2054.17,2865.09 1975.08,2853.81 1971.91,2851.32C1968.73,2848.83 1938.96,2774.69 1939.53,2770.7C1940.1,2766.7 1989.41,2703.85 1993.15,2702.35C1996.9,2700.84 2075.99,2712.12 2079.16,2714.61Z" style="fill:#8eccff;fill-opacity:0.18;"/>
    </g>
    <defs>
        <linearGradient id="_Linear1" x1="0" y1="0" x2="1" y2="0" gradientUnits="userSpaceOnUse" gradientTransform="matrix(2160,0,0,3840,-1.62329,-3.24659)"><stop offset="0" style="stop-color:#ecfeff;stop-opacity:1"/><stop offset="1" style="stop-color:#f0f9ff;stop-opacity:1"/></linearGradient>
    </defs>
</svg>
